<svg width="24" height="24" viewBox="0 0 24 24" fill="none" xmlns="http://www.w3.org/2000/svg">
<path d="M11.997 0.00537109C5.3715 0.00537109 0 5.37612 0 12.0031C0 16.9164 2.9535 21.1359 7.18125 22.9906C7.1475 22.1521 7.17525 21.1464 7.38975 20.2366C7.62075 19.2609 8.93325 13.6974 8.93325 13.6974C8.93325 13.6974 8.54925 12.9316 8.54925 11.8006C8.54925 10.0239 9.58125 8.69562 10.8645 8.69562C11.955 8.69562 12.4823 9.51387 12.4823 10.4956C12.4823 11.5921 11.7817 13.2331 11.4233 14.7526C11.1225 16.0246 12.0623 17.0626 13.3148 17.0626C15.588 17.0626 17.1188 14.1444 17.1188 10.6846C17.1188 8.05587 15.348 6.08862 12.1275 6.08862C8.4885 6.08862 6.222 8.80137 6.222 11.8329C6.222 12.8784 6.53025 13.6156 7.0125 14.1864C7.23525 14.4489 7.266 14.5531 7.18425 14.8546C7.12875 15.0766 6.99675 15.6069 6.94125 15.8169C6.861 16.1221 6.61575 16.2301 6.3405 16.1169C4.66425 15.4344 3.88425 13.5984 3.88425 11.5344C3.88425 8.12712 6.7575 4.03962 12.459 4.03962C17.0385 4.03962 20.055 7.35462 20.055 10.9126C20.055 15.6189 17.4368 19.1349 13.5802 19.1349C12.2843 19.1349 11.0655 18.4344 10.65 17.6409C10.65 17.6409 9.9525 20.4054 9.80625 20.9379C9.55125 21.8611 9.05325 22.7874 8.59875 23.5081C9.67575 23.8269 10.8158 24.0001 11.997 24.0001C18.6225 24.0001 23.9932 18.6301 23.9932 12.0031C23.9932 5.37612 18.6225 0.00537109 11.997 0.00537109Z" fill="#E5E5E5"/>
</svg>
