<svg width="233" height="35" viewBox="0 0 233 35" fill="none" xmlns="http://www.w3.org/2000/svg">
<path d="M40.224 0.399998L34.896 19.792L26.736 0.591998H23.568L15.552 19.792L10.08 0.399998H0.144L10.656 34H18.816L25.152 17.824L31.584 34H39.744L50.112 0.399998H40.224ZM68.4983 34.864C76.9462 34.864 83.0423 29.056 83.0423 21.04C83.0423 13.024 76.9462 7.264 68.4983 7.264C60.0502 7.264 54.0022 13.024 54.0022 21.04C54.0022 29.056 60.0502 34.864 68.4983 34.864ZM68.4983 26.848C65.2823 26.848 62.9302 24.496 62.9302 21.088C62.9302 17.632 65.2823 15.28 68.4983 15.28C71.7622 15.28 74.1142 17.68 74.1142 21.088C74.1142 24.496 71.7622 26.848 68.4983 26.848ZM104.986 34.864C113.434 34.864 119.53 29.056 119.53 21.04C119.53 13.024 113.434 7.264 104.986 7.264C96.5377 7.264 90.4897 13.024 90.4897 21.04C90.4897 29.056 96.5377 34.864 104.986 34.864ZM104.986 26.848C101.77 26.848 99.4177 24.496 99.4177 21.088C99.4177 17.632 101.77 15.28 104.986 15.28C108.25 15.28 110.602 17.68 110.602 21.088C110.602 24.496 108.25 26.848 104.986 26.848ZM142.106 0.399998H128.522V34H142.106C152.282 34 159.482 26.992 159.482 17.2C159.482 7.36 152.282 0.399998 142.106 0.399998ZM141.674 25.552H137.834V8.896H141.674C146.666 8.896 149.978 12.208 149.978 17.2C149.978 22.144 146.666 25.552 141.674 25.552ZM181.664 34.864C190.112 34.864 196.208 29.056 196.208 21.04C196.208 13.024 190.112 7.264 181.664 7.264C173.216 7.264 167.168 13.024 167.168 21.04C167.168 29.056 173.216 34.864 181.664 34.864ZM181.664 26.848C178.448 26.848 176.096 24.496 176.096 21.088C176.096 17.632 178.448 15.28 181.664 15.28C184.928 15.28 187.28 17.68 187.28 21.088C187.28 24.496 184.928 26.848 181.664 26.848ZM218.151 34.864C226.599 34.864 232.695 29.056 232.695 21.04C232.695 13.024 226.599 7.264 218.151 7.264C209.703 7.264 203.655 13.024 203.655 21.04C203.655 29.056 209.703 34.864 218.151 34.864ZM218.151 26.848C214.935 26.848 212.583 24.496 212.583 21.088C212.583 17.632 214.935 15.28 218.151 15.28C221.415 15.28 223.767 17.68 223.767 21.088C223.767 24.496 221.415 26.848 218.151 26.848Z" fill="#E09145"/>
</svg>
